0
SECTION
2
HEADER
9
$INSUNITS
70
4
9
$ACADVER
1
AC1014
9
$HANDSEED
5
FFFF
0
ENDSEC
0
SECTION
2
TABLES
0
TABLE
2
VPORT
5
8
100
AcDbSymbolTable
0
ENDTAB
0
TABLE
2
LTYPE
5
5
100
AcDbSymbolTable
0
LTYPE
5
14
100
AcDbSymbolTableRecord
100
AcDbLinetypeTableRecord
2
BYBLOCK
70
0
0
LTYPE
5
15
100
AcDbSymbolTableRecord
100
AcDbLinetypeTableRecord
2
BYLAYER
70
0
0
ENDTAB
0
TABLE
2
LAYER
5
2
100
AcDbSymbolTable
70
2
0
LAYER
5
50
100
AcDbSymbolTableRecord
100
AcDbLayerTableRecord
2
0
70
0
6
CONTINUOUS
0
ENDTAB
0
TABLE
2
STYLE
5
3
100
AcDbSymbolTable
70
1
0
STYLE
5
11
100
AcDbSymbolTableRecord
100
AcDbTextStyleTableRecord
2
STANDARD
70
0
0
ENDTAB
0
TABLE
2
VIEW
5
6
100
AcDbSymbolTable
70
0
0
ENDTAB
0
TABLE
2
UCS
5
7
100
AcDbSymbolTable
70
0
0
ENDTAB
0
TABLE
2
APPID
5
9
100
AcDbSymbolTable
70
2
0
APPID
5
12
100
AcDbSymbolTableRecord
100
AcDbRegAppTableRecord
2
ACAD
70
0
0
ENDTAB
0
TABLE
2
DIMSTYLE
5
A
100
AcDbSymbolTable
70
1
0
ENDTAB
0
TABLE
2
BLOCK_RECORD
5
1
100
AcDbSymbolTable
70
1
0
BLOCK_RECORD
5
1F
100
AcDbSymbolTableRecord
100
AcDbBlockTableRecord
2
*MODEL_SPACE
0
BLOCK_RECORD
5
1B
100
AcDbSymbolTableRecord
100
AcDbBlockTableRecord
2
*PAPER_SPACE
0
ENDTAB
0
ENDSEC
0
SECTION
2
BLOCKS
0
BLOCK
5
20
100
AcDbEntity
100
AcDbBlockBegin
2
*MODEL_SPACE
0
ENDBLK
5
21
100
AcDbEntity
100
AcDbBlockEnd
0
BLOCK
5
1C
100
AcDbEntity
100
AcDbBlockBegin
2
*PAPER_SPACE
0
ENDBLK
5
1D
100
AcDbEntity
100
AcDbBlockEnd
0
ENDSEC
0
SECTION
2
ENTITIES
0
LINE
5
100
100
AcDbEntity
8
0
100
AcDbLine
10
82.486605833333329
20
-9.691732290271899
30
0
11
81.685768491388956
21
-9.5029626705567178
31
0
0
LINE
5
101
100
AcDbEntity
8
0
100
AcDbLine
10
81.685768491388956
20
-9.5029626705567178
30
0
11
80.884922420972188
21
-9.3141930380556861
31
0
0
LINE
5
102
100
AcDbEntity
8
0
100
AcDbLine
10
80.884922420972188
20
-9.3141930380556861
30
0
11
80.08408507902783
21
-9.1254233885068565
31
0
0
LINE
5
103
100
AcDbEntity
8
0
100
AcDbLine
10
80.08408507902783
20
-9.1254233885068565
30
0
11
79.283239008611048
21
-8.9366538071492201
31
0
0
LINE
5
104
100
AcDbEntity
8
0
100
AcDbLine
10
79.283239008611048
20
-8.9366538071492201
30
0
11
77.681564324722288
21
-8.5705550804743051
31
0
0
LINE
5
105
100
AcDbEntity
8
0
100
AcDbLine
10
77.681564324722288
20
-8.5705550804743051
30
0
11
76.079880912361148
21
-8.2101767763931441
31
0
0
LINE
5
106
100
AcDbEntity
8
0
100
AcDbLine
10
76.079880912361148
20
-8.2101767763931441
30
0
11
74.478197499999993
21
-7.8583788334378477
31
0
0
LINE
5
107
100
AcDbEntity
8
0
100
AcDbLine
10
74.478197499999993
20
-7.8583788334378477
30
0
11
72.876514087638867
21
-7.5151612516084185
31
0
0
LINE
5
108
100
AcDbEntity
8
0
100
AcDbLine
10
72.876514087638867
20
-7.5151612516084185
30
0
11
71.274835039513917
21
-7.1805243036696194
31
0
0
LINE
5
109
100
AcDbEntity
8
0
100
AcDbLine
10
71.274835039513917
20
-7.1805243036696194
30
0
11
69.673151627152777
21
-6.8516073691774295
31
0
0
LINE
5
110
100
AcDbEntity
8
0
100
AcDbLine
10
69.673151627152777
20
-6.8516073691774295
30
0
11
68.071472579027827
21
-6.5341312798727422
31
0
0
LINE
5
111
100
AcDbEntity
8
0
100
AcDbLine
10
68.071472579027827
20
-6.5341312798727422
30
0
11
66.469789166666672
21
-6.225235551693924
31
0
0
LINE
5
112
100
AcDbEntity
8
0
100
AcDbLine
10
66.469789166666672
20
-6.225235551693924
30
0
11
64.868105754305532
21
-5.9249201846409711
31
0
0
LINE
5
113
100
AcDbEntity
8
0
100
AcDbLine
10
64.868105754305532
20
-5.9249201846409711
30
0
11
63.266426706180582
21
-5.6360453900107625
31
0
0
LINE
5
114
100
AcDbEntity
8
0
100
AcDbLine
10
63.266426706180582
20
-5.6360453900107625
30
0
11
61.664743293819441
21
-5.3557512292711813
31
0
0
LINE
5
115
100
AcDbEntity
8
0
100
AcDbLine
10
61.664743293819441
20
-5.3557512292711813
30
0
11
60.063064245694491
21
-5.0840371568927045
31
0
0
LINE
5
116
100
AcDbEntity
8
0
100
AcDbLine
10
60.063064245694491
20
-5.0840371568927045
30
0
11
58.461380833333337
21
-4.8209037184048569
31
0
0
LINE
5
117
100
AcDbEntity
8
0
100
AcDbLine
10
58.461380833333337
20
-4.8209037184048569
30
0
11
56.859697420972196
21
-4.5692111251045144
31
0
0
LINE
5
118
100
AcDbEntity
8
0
100
AcDbLine
10
56.859697420972196
20
-4.5692111251045144
30
0
11
55.258018372847246
21
-4.3260986201652765
31
0
0
LINE
5
119
100
AcDbEntity
8
0
100
AcDbLine
10
55.258018372847246
20
-4.3260986201652765
30
0
11
53.656334960486099
21
-4.0944269604135428
31
0
0
LINE
5
120
100
AcDbEntity
8
0
100
AcDbLine
10
53.656334960486099
20
-4.0944269604135428
30
0
11
52.054655912361156
21
-3.8770558116166667
31
0
0
LINE
5
121
100
AcDbEntity
8
0
100
AcDbLine
10
52.054655912361156
20
-3.8770558116166667
30
0
11
50.452972500000008
21
-3.6739857193041714
31
0
0
LINE
5
122
100
AcDbEntity
8
0
100
AcDbLine
10
50.452972500000008
20
-3.6739857193041714
30
0
11
48.851289087638861
21
-3.482355926649658
31
0
0
LINE
5
123
100
AcDbEntity
8
0
100
AcDbLine
10
48.851289087638861
20
-3.482355926649658
30
0
11
47.249610039513918
21
-3.3050266449499999
31
0
0
LINE
5
124
100
AcDbEntity
8
0
100
AcDbLine
10
47.249610039513918
20
-3.3050266449499999
30
0
11
45.647926627152771
21
-3.1448586310316
31
0
0
LINE
5
125
100
AcDbEntity
8
0
100
AcDbLine
10
45.647926627152771
20
-3.1448586310316
30
0
11
44.046247579027821
21
-2.9961309167711807
31
0
0
LINE
5
126
100
AcDbEntity
8
0
100
AcDbLine
10
44.046247579027821
20
-2.9961309167711807
30
0
11
42.444564166666666
21
-2.8617042589951431
31
0
0
LINE
5
127
100
AcDbEntity
8
0
100
AcDbLine
10
42.444564166666666
20
-2.8617042589951431
30
0
11
40.842880754305526
21
-2.7444383234708383
31
0
0
LINE
5
128
100
AcDbEntity
8
0
100
AcDbLine
10
40.842880754305526
20
-2.7444383234708383
30
0
11
39.241201706180576
21
-2.64147289890139
31
0
0
LINE
5
129
100
AcDbEntity
8
0
100
AcDbLine
10
39.241201706180576
20
-2.64147289890139
30
0
11
37.639518293819435
21
-2.5556681965836758
31
0
0
LINE
5
130
100
AcDbEntity
8
0
100
AcDbLine
10
37.639518293819435
20
-2.5556681965836758
30
0
11
36.037837063576383
21
-2.487024762047219
31
0
0
LINE
5
131
100
AcDbEntity
8
0
100
AcDbLine
10
36.037837063576383
20
-2.487024762047219
30
0
11
34.436155833333338
21
-2.438402261059371
31
0
0
LINE
5
132
100
AcDbEntity
8
0
100
AcDbLine
10
34.436155833333338
20
-2.438402261059371
30
0
11
32.834474603090293
21
-2.4098012391496573
31
0
0
LINE
5
133
100
AcDbEntity
8
0
100
AcDbLine
10
32.834474603090293
20
-2.4098012391496573
30
0
11
31.232793372847247
21
-2.4012206052590286
31
0
0
LINE
5
134
100
AcDbEntity
8
0
100
AcDbLine
10
31.232793372847247
20
-2.4012206052590286
30
0
11
29.631109960486096
21
-2.4126609049170091
31
0
0
LINE
5
135
100
AcDbEntity
8
0
100
AcDbLine
10
29.631109960486096
20
-2.4126609049170091
30
0
11
28.029428730243051
21
-2.438402261059371
31
0
0
LINE
5
136
100
AcDbEntity
8
0
100
AcDbLine
10
28.029428730243051
20
-2.438402261059371
30
0
11
26.427747500000006
21
-2.4784446736861145
31
0
0
LINE
5
137
100
AcDbEntity
8
0
100
AcDbLine
10
26.427747500000006
20
-2.4784446736861145
30
0
11
24.826066269756957
21
-2.5327870517381901
31
0
0
LINE
5
138
100
AcDbEntity
8
0
100
AcDbLine
10
24.826066269756957
20
-2.5327870517381901
30
0
11
23.224385039513912
21
-2.6071509088684
31
0
0
LINE
5
139
100
AcDbEntity
8
0
100
AcDbLine
10
23.224385039513912
20
-2.6071509088684
30
0
11
21.622701627152765
21
-2.7072561221409712
31
0
0
LINE
5
140
100
AcDbEntity
8
0
100
AcDbLine
10
21.622701627152765
20
-2.7072561221409712
30
0
11
20.021020396909716
21
-2.8416827799170092
31
0
0
LINE
5
141
100
AcDbEntity
8
0
100
AcDbLine
10
20.021020396909716
20
-2.8416827799170092
30
0
11
18.419339166666671
21
-3.0190120616166665
31
0
0
LINE
5
142
100
AcDbEntity
8
0
100
AcDbLine
10
18.419339166666671
20
-3.0190120616166665
30
0
11
16.817657936423622
21
-3.2478235100715236
31
0
0
LINE
5
143
100
AcDbEntity
8
0
100
AcDbLine
10
16.817657936423622
20
-3.2478235100715236
30
0
11
15.215975615121524
21
-3.5281182163406291
31
0
0
LINE
5
144
100
AcDbEntity
8
0
100
AcDbLine
10
15.215975615121524
20
-3.5281182163406291
30
0
11
13.614294384878477
21
-3.8598950893649335
31
0
0
LINE
5
145
100
AcDbEntity
8
0
100
AcDbLine
10
13.614294384878477
20
-3.8598950893649335
30
0
11
12.012612063576382
21
-4.2460148859708386
31
0
0
LINE
5
146
100
AcDbEntity
8
0
100
AcDbLine
10
12.012612063576382
20
-4.2460148859708386
30
0
11
10.410930833333335
21
-4.6950576945194475
31
0
0
LINE
5
147
100
AcDbEntity
8
0
100
AcDbLine
10
10.410930833333335
20
-4.6950576945194475
30
0
11
8.8092490575607627
21
-5.221324298730381
31
0
0
LINE
5
148
100
AcDbEntity
8
0
100
AcDbLine
10
8.8092490575607627
20
-5.221324298730381
30
0
11
7.2075672817881902
21
-5.8362558165559051
31
0
0
LINE
5
149
100
AcDbEntity
8
0
100
AcDbLine
10
7.2075672817881902
20
-5.8362558165559051
30
0
11
6.4067266666666667
21
-6.1937740457225718
31
0
0
LINE
5
150
100
AcDbEntity
8
0
100
AcDbLine
10
6.4067266666666667
20
-6.1937740457225718
30
0
11
5.6058857787803804
21
-6.6056349257060765
31
0
0
LINE
5
151
100
AcDbEntity
8
0
100
AcDbLine
10
5.6058857787803804
20
-6.6056349257060765
30
0
11
4.805044890894095
21
-7.0947198741166675
31
0
0
LINE
5
152
100
AcDbEntity
8
0
100
AcDbLine
10
4.805044890894095
20
-7.0947198741166675
30
0
11
4.0042041393901906
21
-7.7096512555598107
31
0
0
LINE
5
153
100
AcDbEntity
8
0
100
AcDbLine
10
4.0042041393901906
20
-7.7096512555598107
30
0
11
3.3635314699958769
21
-8.3102818532833336
31
0
0
LINE
5
154
100
AcDbEntity
8
0
100
AcDbLine
10
3.3635314699958769
20
-8.3102818532833336
30
0
11
3.0431951693943149
21
-8.6391986513931425
31
0
0
LINE
5
155
100
AcDbEntity
8
0
100
AcDbLine
10
3.0431951693943149
20
-8.6391986513931425
30
0
11
2.7228588346971576
21
-9.0253183116166671
31
0
0
LINE
5
156
100
AcDbEntity
8
0
100
AcDbLine
10
2.7228588346971576
20
-9.0253183116166671
30
0
11
2.5626906673485794
21
-9.2770111435861775
31
0
0
LINE
5
157
100
AcDbEntity
8
0
100
AcDbLine
10
2.5626906673485794
20
-9.2770111435861775
30
0
11
2.4826065836742894
21
-9.4428996141939248
31
0
0
LINE
5
158
100
AcDbEntity
8
0
100
AcDbLine
10
2.4826065836742894
20
-9.4428996141939248
30
0
11
2.4425645418371449
21
-9.5544452976024523
31
0
0
LINE
5
159
100
AcDbEntity
8
0
100
AcDbLine
10
2.4425645418371449
20
-9.5544452976024523
30
0
11
2.4025225000000003
21
-9.7403547699500006
31
0
0
LINE
5
160
100
AcDbEntity
8
0
100
AcDbLine
10
2.4025225000000003
20
-9.7403547699500006
30
0
11
2.4425645418371449
21
-10.115033857750781
31
0
0
LINE
5
161
100
AcDbEntity
8
0
100
AcDbLine
10
2.4425645418371449
20
-10.115033857750781
30
0
11
2.4826065836742899
21
-10.215138968736568
31
0
0
LINE
5
162
100
AcDbEntity
8
0
100
AcDbLine
10
2.4826065836742899
20
-10.215138968736568
30
0
11
2.562690667348579
21
-10.366726723815887
31
0
0
LINE
5
163
100
AcDbEntity
8
0
100
AcDbLine
10
2.562690667348579
20
-10.366726723815887
30
0
11
2.7228588346971572
21
-10.581237661315887
31
0
0
LINE
5
164
100
AcDbEntity
8
0
100
AcDbLine
10
2.7228588346971572
20
-10.581237661315887
30
0
11
3.0431951693943149
21
-10.884413103283332
31
0
0
LINE
5
165
100
AcDbEntity
8
0
100
AcDbLine
10
3.0431951693943149
20
-10.884413103283332
30
0
11
3.3635314699958769
21
-11.098924040783336
31
0
0
LINE
5
166
100
AcDbEntity
8
0
100
AcDbLine
10
3.3635314699958769
20
-11.098924040783336
30
0
11
4.0042041393901915
21
-11.364917554185677
31
0
0
LINE
5
167
100
AcDbEntity
8
0
100
AcDbLine
10
4.0042041393901915
20
-11.364917554185677
30
0
11
4.8050448908940959
21
-11.550827060628819
31
0
0
LINE
5
168
100
AcDbEntity
8
0
100
AcDbLine
10
4.8050448908940959
20
-11.550827060628819
30
0
11
5.6058857787803804
21
-11.705274924718228
31
0
0
LINE
5
169
100
AcDbEntity
8
0
100
AcDbLine
10
5.6058857787803804
20
-11.705274924718228
30
0
11
6.4067266666666667
21
-11.82540107153941
31
0
0
LINE
5
170
100
AcDbEntity
8
0
100
AcDbLine
10
6.4067266666666667
20
-11.82540107153941
30
0
11
7.2075672817881902
21
-11.914065576006859
31
0
0
LINE
5
171
100
AcDbEntity
8
0
100
AcDbLine
10
7.2075672817881902
20
-11.914065576006859
30
0
11
8.8092490575607627
21
-12.01989093910842
31
0
0
LINE
5
172
100
AcDbEntity
8
0
100
AcDbLine
10
8.8092490575607627
20
-12.01989093910842
30
0
11
10.410930833333333
21
-12.094254659856247
31
0
0
LINE
5
173
100
AcDbEntity
8
0
100
AcDbLine
10
10.410930833333333
20
-12.094254659856247
30
0
11
12.012612063576382
21
-12.140017222311981
31
0
0
LINE
5
174
100
AcDbEntity
8
0
100
AcDbLine
10
12.012612063576382
20
-12.140017222311981
30
0
11
13.614294384878479
21
-12.162898367157469
31
0
0
LINE
5
175
100
AcDbEntity
8
0
100
AcDbLine
10
13.614294384878479
20
-12.162898367157469
30
0
11
15.215975615121526
21
-12.162898367157469
31
0
0
LINE
5
176
100
AcDbEntity
8
0
100
AcDbLine
10
15.215975615121526
20
-12.162898367157469
30
0
11
16.817657936423622
21
-12.145737372140973
31
0
0
LINE
5
177
100
AcDbEntity
8
0
100
AcDbLine
10
16.817657936423622
20
-12.145737372140973
30
0
11
18.419339166666667
21
-12.117136077466498
31
0
0
LINE
5
178
100
AcDbEntity
8
0
100
AcDbLine
10
18.419339166666667
20
-12.117136077466498
30
0
11
20.021020396909716
21
-12.074233726307639
31
0
0
LINE
5
179
100
AcDbEntity
8
0
100
AcDbLine
10
20.021020396909716
20
-12.074233726307639
30
0
11
21.622701627152765
21
-12.025611225319793
31
0
0
LINE
5
180
100
AcDbEntity
8
0
100
AcDbLine
10
21.622701627152765
20
-12.025611225319793
30
0
11
23.224385039513908
21
-11.968408363206077
31
0
0
LINE
5
181
100
AcDbEntity
8
0
100
AcDbLine
10
23.224385039513908
20
-11.968408363206077
30
0
11
24.826066269756954
21
-11.908345289795488
31
0
0
LINE
5
182
100
AcDbEntity
8
0
100
AcDbLine
10
24.826066269756954
20
-11.908345289795488
30
0
11
26.427747500000006
21
-11.848282216384895
31
0
0
LINE
5
183
100
AcDbEntity
8
0
100
AcDbLine
10
26.427747500000006
20
-11.848282216384895
30
0
11
28.029428730243051
21
-11.788219142974306
31
0
0
LINE
5
184
100
AcDbEntity
8
0
100
AcDbLine
10
28.029428730243051
20
-11.788219142974306
30
0
11
29.631109960486096
21
-11.728156069563715
31
0
0
LINE
5
185
100
AcDbEntity
8
0
100
AcDbLine
10
29.631109960486096
20
-11.728156069563715
30
0
11
31.232793372847244
21
-11.668092996153126
31
0
0
LINE
5
186
100
AcDbEntity
8
0
100
AcDbLine
10
31.232793372847244
20
-11.668092996153126
30
0
11
32.834474603090285
21
-11.610890134039412
31
0
0
LINE
5
187
100
AcDbEntity
8
0
100
AcDbLine
10
32.834474603090285
20
-11.610890134039412
30
0
11
34.436155833333338
21
-11.553687271925696
31
0
0
LINE
5
188
100
AcDbEntity
8
0
100
AcDbLine
10
34.436155833333338
20
-11.553687271925696
30
0
11
36.037837063576383
21
-11.493624198515107
31
0
0
LINE
5
189
100
AcDbEntity
8
0
100
AcDbLine
10
36.037837063576383
20
-11.493624198515107
30
0
11
37.639518293819435
21
-11.436421200019012
31
0
0
LINE
5
190
100
AcDbEntity
8
0
100
AcDbLine
10
37.639518293819435
20
-11.436421200019012
30
0
11
39.241201706180576
21
-11.376358126608421
31
0
0
LINE
5
191
100
AcDbEntity
8
0
100
AcDbLine
10
39.241201706180576
20
-11.376358126608421
30
0
11
40.842880754305526
21
-11.319155264494704
31
0
0
LINE
5
192
100
AcDbEntity
8
0
100
AcDbLine
10
40.842880754305526
20
-11.319155264494704
30
0
11
42.444564166666666
21
-11.259092191084115
31
0
0
LINE
5
193
100
AcDbEntity
8
0
100
AcDbLine
10
42.444564166666666
20
-11.259092191084115
30
0
11
44.046247579027813
21
-11.199029117673525
31
0
0
LINE
5
194
100
AcDbEntity
8
0
100
AcDbLine
10
44.046247579027813
20
-11.199029117673525
30
0
11
45.647926627152764
21
-11.14182625555981
31
0
0
LINE
5
195
100
AcDbEntity
8
0
100
AcDbLine
10
45.647926627152764
20
-11.14182625555981
30
0
11
47.249610039513918
21
-11.081763182149221
31
0
0
LINE
5
196
100
AcDbEntity
8
0
100
AcDbLine
10
47.249610039513918
20
-11.081763182149221
30
0
11
48.851289087638861
21
-11.024560183653126
31
0
0
LINE
5
197
100
AcDbEntity
8
0
100
AcDbLine
10
48.851289087638861
20
-11.024560183653126
30
0
11
50.452972500000008
21
-10.964497246624916
31
0
0
LINE
5
198
100
AcDbEntity
8
0
100
AcDbLine
10
50.452972500000008
20
-10.964497246624916
30
0
11
52.054655912361156
21
-10.907294248128821
31
0
0
LINE
5
199
100
AcDbEntity
8
0
100
AcDbLine
10
52.054655912361156
20
-10.907294248128821
30
0
11
53.656334960486099
21
-10.84723117471823
31
0
0
LINE
5
200
100
AcDbEntity
8
0
100
AcDbLine
10
53.656334960486099
20
-10.84723117471823
30
0
11
55.258018372847246
21
-10.787168169498829
31
0
0
LINE
5
201
100
AcDbEntity
8
0
100
AcDbLine
10
55.258018372847246
20
-10.787168169498829
30
0
11
56.859697420972196
21
-10.729965239193923
31
0
0
LINE
5
202
100
AcDbEntity
8
0
100
AcDbLine
10
56.859697420972196
20
-10.729965239193923
30
0
11
58.461380833333337
21
-10.669902165783334
31
0
0
LINE
5
203
100
AcDbEntity
8
0
100
AcDbLine
10
58.461380833333337
20
-10.669902165783334
30
0
11
60.063064245694484
21
-10.612699235478429
31
0
0
LINE
5
204
100
AcDbEntity
8
0
100
AcDbLine
10
60.063064245694484
20
-10.612699235478429
30
0
11
61.664743293819427
21
-10.552636162067838
31
0
0
LINE
5
205
100
AcDbEntity
8
0
100
AcDbLine
10
61.664743293819427
20
-10.552636162067838
30
0
11
63.266426706180582
21
-10.495433299954124
31
0
0
LINE
5
206
100
AcDbEntity
8
0
100
AcDbLine
10
63.266426706180582
20
-10.495433299954124
30
0
11
64.868105754305532
21
-10.435370226543535
31
0
0
LINE
5
207
100
AcDbEntity
8
0
100
AcDbLine
10
64.868105754305532
20
-10.435370226543535
30
0
11
66.469789166666672
21
-10.375307153132944
31
0
0
LINE
5
208
100
AcDbEntity
8
0
100
AcDbLine
10
66.469789166666672
20
-10.375307153132944
30
0
11
68.071472579027827
21
-10.31810422282804
31
0
0
LINE
5
209
100
AcDbEntity
8
0
100
AcDbLine
10
68.071472579027827
20
-10.31810422282804
30
0
11
69.673151627152777
21
-10.258041149417449
31
0
0
LINE
5
210
100
AcDbEntity
8
0
100
AcDbLine
10
69.673151627152777
20
-10.258041149417449
30
0
11
71.274835039513917
21
-10.200838253208138
31
0
0
LINE
5
211
100
AcDbEntity
8
0
100
AcDbLine
10
71.274835039513917
20
-10.200838253208138
30
0
11
72.876514087638867
21
-10.140775179797547
31
0
0
LINE
5
212
100
AcDbEntity
8
0
100
AcDbLine
10
72.876514087638867
20
-10.140775179797547
30
0
11
74.478197499999993
21
-10.083572283588238
31
0
0
LINE
5
213
100
AcDbEntity
8
0
100
AcDbLine
10
74.478197499999993
20
-10.083572283588238
30
0
11
76.079880912361148
21
-10.023509210177648
31
0
0
LINE
5
214
100
AcDbEntity
8
0
100
AcDbLine
10
76.079880912361148
20
-10.023509210177648
30
0
11
77.681564324722288
21
-9.9634461367670575
31
0
0
LINE
5
215
100
AcDbEntity
8
0
100
AcDbLine
10
77.681564324722288
20
-9.9634461367670575
30
0
11
79.283239008611048
21
-9.90624322350995
31
0
0
LINE
5
216
100
AcDbEntity
8
0
100
AcDbLine
10
79.283239008611048
20
-9.90624322350995
30
0
11
80.08408507902783
21
-9.8776417668813981
31
0
0
LINE
5
217
100
AcDbEntity
8
0
100
AcDbLine
10
80.08408507902783
20
-9.8776417668813981
30
0
11
80.884922420972188
21
-9.8461801671471569
31
0
0
LINE
5
218
100
AcDbEntity
8
0
100
AcDbLine
10
80.884922420972188
20
-9.8461801671471569
30
0
11
81.685768491388956
21
-9.817578710518605
31
0
0
LINE
5
219
100
AcDbEntity
8
0
100
AcDbLine
10
81.685768491388956
20
-9.817578710518605
30
0
11
82.486605833333329
21
-9.7889772496281005
31
0
0
LINE
5
220
100
AcDbEntity
8
0
100
AcDbLine
10
2.4025225000000003
20
-9.7403547699500006
30
0
11
82.486605833333329
21
-9.7403547699500006
31
0
0
ENDSEC
0
SECTION
2
OBJECTS
0
DICTIONARY
5
C
100
AcDbDictionary
3
ACAD_GROUP
350
D
3
ACAD_MLINESTYLE
350
17
0
DICTIONARY
5
D
100
AcDbDictionary
0
DICTIONARY
5
1A
330
C
100
AcDbDictionary
0
DICTIONARY
5
17
100
AcDbDictionary
0
ENDSEC
0
EOF
