0
SECTION
2
HEADER
9
$INSUNITS
70
4
9
$ACADVER
1
AC1014
9
$HANDSEED
5
FFFF
0
ENDSEC
0
SECTION
2
TABLES
0
TABLE
2
VPORT
5
8
100
AcDbSymbolTable
0
ENDTAB
0
TABLE
2
LTYPE
5
5
100
AcDbSymbolTable
0
LTYPE
5
14
100
AcDbSymbolTableRecord
100
AcDbLinetypeTableRecord
2
BYBLOCK
70
0
0
LTYPE
5
15
100
AcDbSymbolTableRecord
100
AcDbLinetypeTableRecord
2
BYLAYER
70
0
0
ENDTAB
0
TABLE
2
LAYER
5
2
100
AcDbSymbolTable
70
2
0
LAYER
5
50
100
AcDbSymbolTableRecord
100
AcDbLayerTableRecord
2
0
70
0
6
CONTINUOUS
0
ENDTAB
0
TABLE
2
STYLE
5
3
100
AcDbSymbolTable
70
1
0
STYLE
5
11
100
AcDbSymbolTableRecord
100
AcDbTextStyleTableRecord
2
STANDARD
70
0
0
ENDTAB
0
TABLE
2
VIEW
5
6
100
AcDbSymbolTable
70
0
0
ENDTAB
0
TABLE
2
UCS
5
7
100
AcDbSymbolTable
70
0
0
ENDTAB
0
TABLE
2
APPID
5
9
100
AcDbSymbolTable
70
2
0
APPID
5
12
100
AcDbSymbolTableRecord
100
AcDbRegAppTableRecord
2
ACAD
70
0
0
ENDTAB
0
TABLE
2
DIMSTYLE
5
A
100
AcDbSymbolTable
70
1
0
ENDTAB
0
TABLE
2
BLOCK_RECORD
5
1
100
AcDbSymbolTable
70
1
0
BLOCK_RECORD
5
1F
100
AcDbSymbolTableRecord
100
AcDbBlockTableRecord
2
*MODEL_SPACE
0
BLOCK_RECORD
5
1B
100
AcDbSymbolTableRecord
100
AcDbBlockTableRecord
2
*PAPER_SPACE
0
ENDTAB
0
ENDSEC
0
SECTION
2
BLOCKS
0
BLOCK
5
20
100
AcDbEntity
100
AcDbBlockBegin
2
*MODEL_SPACE
0
ENDBLK
5
21
100
AcDbEntity
100
AcDbBlockEnd
0
BLOCK
5
1C
100
AcDbEntity
100
AcDbBlockBegin
2
*PAPER_SPACE
0
ENDBLK
5
1D
100
AcDbEntity
100
AcDbBlockEnd
0
ENDSEC
0
SECTION
2
ENTITIES
0
LWPOLYLINE
5
100
100
AcDbEntity
8
0
100
AcDbPolyline
90
115
70
1
43
0.0
10
82.486605833333329
20
9.7889772496281005
10
82.486605833333329
20
9.691732290271899
10
81.685768491388956
20
9.5029626705567178
10
80.884922420972188
20
9.3141930380556861
10
80.08408507902783
20
9.1254233885068565
10
79.283239008611048
20
8.9366538071492201
10
77.681564324722288
20
8.5705550804743051
10
76.079880912361148
20
8.2101767763931441
10
74.478197499999993
20
7.8583788334378477
10
72.876514087638867
20
7.5151612516084185
10
71.274835039513917
20
7.1805243036696194
10
69.673151627152777
20
6.8516073691774295
10
68.071472579027827
20
6.5341312798727422
10
66.469789166666672
20
6.225235551693924
10
64.868105754305532
20
5.9249201846409711
10
63.266426706180582
20
5.6360453900107625
10
61.664743293819441
20
5.3557512292711813
10
60.063064245694491
20
5.0840371568927045
10
58.461380833333337
20
4.8209037184048569
10
56.859697420972196
20
4.5692111251045144
10
55.258018372847246
20
4.3260986201652765
10
53.656334960486099
20
4.0944269604135428
10
52.054655912361156
20
3.8770558116166667
10
50.452972500000008
20
3.6739857193041714
10
48.851289087638861
20
3.4823559266496584
10
47.249610039513918
20
3.3050266449499999
10
45.647926627152771
20
3.1448586310315996
10
44.046247579027821
20
2.9961309167711803
10
42.444564166666666
20
2.8617042589951436
10
40.842880754305526
20
2.7444383234708383
10
39.241201706180568
20
2.64147289890139
10
37.639518293819435
20
2.5556681965836758
10
36.03783706357639
20
2.4870247620472186
10
34.436155833333338
20
2.4384022610593714
10
32.834474603090285
20
2.4098012391496573
10
31.232793372847247
20
2.401220605259029
10
29.631109960486093
20
2.4126609049170087
10
28.029428730243051
20
2.4384022610593714
10
26.427747500000009
20
2.4784446736861145
10
24.826066269756957
20
2.5327870517381901
10
23.224385039513908
20
2.6071509088684
10
21.622701627152765
20
2.7072561221409708
10
20.021020396909712
20
2.8416827799170097
10
18.419339166666671
20
3.019012061616666
10
16.817657936423622
20
3.2478235100715236
10
15.215975615121522
20
3.5281182163406291
10
13.61429438487848
20
3.8598950893649331
10
12.012612063576382
20
4.2460148859708386
10
10.410930833333332
20
4.6950576945194475
10
8.8092490575607663
20
5.221324298730381
10
7.2075672817881919
20
5.8362558165559051
10
6.4067266666666711
20
6.1937740457225718
10
5.6058857787803795
20
6.6056349257060765
10
4.8050448908940968
20
7.0947198741166675
10
4.0042041393901862
20
7.7096512555598107
10
3.3635314699958752
20
8.3102818532833336
10
3.0431951693943127
20
8.6391986513931425
10
2.7228588346971616
20
9.0253183116166671
10
2.5626906673485816
20
9.2770111435861775
10
2.4826065836742828
20
9.4428996141939248
10
2.4425645418371467
20
9.5544452976024523
10
2.4025224999999928
20
9.7403547699500006
10
2.4425645418371467
20
10.115033857750781
10
2.4826065836742828
20
10.215138968736568
10
2.5626906673485816
20
10.366726723815887
10
2.7228588346971527
20
10.581237661315887
10
3.0431951693943127
20
10.884413103283332
10
3.3635314699958752
20
11.098924040783336
10
4.004204139390195
20
11.364917554185677
10
4.8050448908940968
20
11.550827060628819
10
5.6058857787803795
20
11.705274924718228
10
6.4067266666666711
20
11.82540107153941
10
7.2075672817881919
20
11.914065576006859
10
8.8092490575607663
20
12.01989093910842
10
10.410930833333332
20
12.094254659856247
10
12.012612063576382
20
12.140017222311981
10
13.61429438487848
20
12.162898367157469
10
15.215975615121522
20
12.162898367157469
10
16.817657936423622
20
12.145737372140973
10
18.419339166666671
20
12.117136077466498
10
20.021020396909712
20
12.074233726307639
10
21.622701627152765
20
12.025611225319793
10
23.224385039513908
20
11.968408363206077
10
29.631109960486093
20
11.728156069563715
10
31.232793372847247
20
11.668092996153126
10
34.436155833333338
20
11.553687271925696
10
36.03783706357639
20
11.493624198515107
10
37.639518293819435
20
11.436421200019012
10
39.241201706180576
20
11.376358126608421
10
40.842880754305526
20
11.319155264494704
10
44.046247579027813
20
11.199029117673525
10
45.647926627152764
20
11.14182625555981
10
47.249610039513918
20
11.081763182149221
10
48.851289087638861
20
11.024560183653126
10
50.452972500000008
20
10.964497246624916
10
52.054655912361156
20
10.907294248128821
10
53.656334960486099
20
10.84723117471823
10
55.258018372847246
20
10.787168169498829
10
56.859697420972196
20
10.729965239193923
10
58.461380833333337
20
10.669902165783334
10
60.063064245694484
20
10.612699235478429
10
61.664743293819427
20
10.552636162067838
10
63.266426706180582
20
10.495433299954124
10
64.868105754305532
20
10.435370226543535
10
66.469789166666672
20
10.375307153132944
10
68.071472579027827
20
10.31810422282804
10
69.673151627152777
20
10.258041149417449
10
71.274835039513917
20
10.200838253208138
10
72.876514087638867
20
10.140775179797547
10
74.478197499999993
20
10.083572283588238
10
77.681564324722288
20
9.9634461367670575
10
79.283239008611048
20
9.90624322350995
10
80.08408507902783
20
9.8776417668813981
10
80.884922420972188
20
9.8461801671471569
10
81.685768491388956
20
9.817578710518605
0
LINE
5
101
100
AcDbEntity
8
0
100
AcDbLine
10
82.486605833333329
20
9.7403547699500006
30
0
11
2.4025224999999928
21
9.7403547699500006
31
0
0
ENDSEC
0
SECTION
2
OBJECTS
0
DICTIONARY
5
C
100
AcDbDictionary
3
ACAD_GROUP
350
D
3
ACAD_MLINESTYLE
350
17
0
DICTIONARY
5
D
100
AcDbDictionary
0
DICTIONARY
5
1A
330
C
100
AcDbDictionary
0
DICTIONARY
5
17
100
AcDbDictionary
0
ENDSEC
0
EOF
