<!DOCTYPE svg PUBLIC "-//W3C//DTD SVG 1.1//EN" "http://www.w3.org/Graphics/SVG/1.1/DTD/svg11.dtd">
<svg width="296.8mm" height="63.53mm" viewBox="0 0 296.8 63.53" xmlns="http://www.w3.org/2000/svg" version="1.1" xmlns:xlink="http://www.w3.org/1999/xlink">
<title>Airfoil plot (clarky-il) CLARK Y AIRFOIL by AirfoilTools.com</title>
<g transform="translate(8.4,34.055448)"><g transform="scale(1,-1)"><line fill="none" stroke="green" stroke-width="0.14" x1="10" x2="10" y1="-16.87" y2="34.06"></line><line fill="none" stroke="green" stroke-width="0.14" x1="20" x2="20" y1="-16.87" y2="34.06"></line><line fill="none" stroke="green" stroke-width="0.14" x1="30" x2="30" y1="-16.87" y2="34.06"></line><line fill="none" stroke="green" stroke-width="0.14" x1="40" x2="40" y1="-16.87" y2="34.06"></line><line fill="none" stroke="green" stroke-width="0.14" x1="50" x2="50" y1="-16.87" y2="34.06"></line><line fill="none" stroke="green" stroke-width="0.14" x1="60" x2="60" y1="-16.87" y2="34.06"></line><line fill="none" stroke="green" stroke-width="0.14" x1="70" x2="70" y1="-16.87" y2="34.06"></line><line fill="none" stroke="green" stroke-width="0.14" x1="80" x2="80" y1="-16.87" y2="34.06"></line><line fill="none" stroke="green" stroke-width="0.14" x1="90" x2="90" y1="-16.87" y2="34.06"></line><line fill="none" stroke="green" stroke-width="0.14" x1="100" x2="100" y1="-16.87" y2="34.06"></line><line fill="none" stroke="green" stroke-width="0.14" x1="110" x2="110" y1="-16.87" y2="34.06"></line><line fill="none" stroke="green" stroke-width="0.14" x1="120" x2="120" y1="-16.87" y2="34.06"></line><line fill="none" stroke="green" stroke-width="0.14" x1="130" x2="130" y1="-16.87" y2="34.06"></line><line fill="none" stroke="green" stroke-width="0.14" x1="140" x2="140" y1="-16.87" y2="34.06"></line><line fill="none" stroke="green" stroke-width="0.14" x1="150" x2="150" y1="-16.87" y2="34.06"></line><line fill="none" stroke="green" stroke-width="0.14" x1="160" x2="160" y1="-16.87" y2="34.06"></line><line fill="none" stroke="green" stroke-width="0.14" x1="170" x2="170" y1="-16.87" y2="34.06"></line><line fill="none" stroke="green" stroke-width="0.14" x1="180" x2="180" y1="-16.87" y2="34.06"></line><line fill="none" stroke="green" stroke-width="0.14" x1="190" x2="190" y1="-16.87" y2="34.06"></line><line fill="none" stroke="green" stroke-width="0.14" x1="200" x2="200" y1="-16.87" y2="34.06"></line><line fill="none" stroke="green" stroke-width="0.14" x1="210" x2="210" y1="-16.87" y2="34.06"></line><line fill="none" stroke="green" stroke-width="0.14" x1="220" x2="220" y1="-16.87" y2="34.06"></line><line fill="none" stroke="green" stroke-width="0.14" x1="230" x2="230" y1="-16.87" y2="34.06"></line><line fill="none" stroke="green" stroke-width="0.14" x1="240" x2="240" y1="-16.87" y2="34.06"></line><line fill="none" stroke="green" stroke-width="0.14" x1="250" x2="250" y1="-16.87" y2="34.06"></line><line fill="none" stroke="green" stroke-width="0.14" x1="260" x2="260" y1="-16.87" y2="34.06"></line><line fill="none" stroke="green" stroke-width="0.14" x1="270" x2="270" y1="-16.87" y2="34.06"></line><line fill="none" stroke="green" stroke-width="0.14" x1="280" x2="280" y1="-16.87" y2="34.06"></line><line fill="none" stroke="green" stroke-width="0.14" x1="-8.4" x2="288.4" y1="10" y2="10"></line><line fill="none" stroke="green" stroke-width="0.14" x1="-8.4" x2="288.4" y1="20" y2="20"></line><line fill="none" stroke="green" stroke-width="0.14" x1="-8.4" x2="288.4" y1="30" y2="30"></line><line fill="none" stroke="green" stroke-width="0.14" x1="-8.4" x2="288.4" y1="-10" y2="-10"></line>
<path fill="none" stroke="red" stroke-width="0.28" d="M 280 0.17 L 277.2 0.83 L 274.4 1.49 L 271.6 2.15 L 268.8 2.81 L 263.2 4.09 L 257.6 5.35 L 252 6.58 L 246.4 7.78 L 240.8 8.95 L 235.2 10.1 L 229.6 11.21 L 224 12.29 L 218.4 13.34 L 212.8 14.35 L 207.2 15.33 L 201.6 16.28 L 196 17.2 L 190.4 18.08 L 184.8 18.93 L 179.2 19.74 L 173.6 20.5 L 168 21.21 L 162.4 21.88 L 156.8 22.5 L 151.2 23.06 L 145.6 23.58 L 140 24.05 L 134.4 24.46 L 128.8 24.82 L 123.2 25.12 L 117.6 25.36 L 112 25.53 L 106.4 25.63 L 100.8 25.66 L 95.2 25.62 L 89.6 25.53 L 84 25.39 L 78.4 25.2 L 72.8 24.94 L 67.2 24.59 L 61.6 24.12 L 56 23.5 L 50.4 22.7 L 44.8 21.72 L 39.2 20.56 L 33.6 19.21 L 28 17.64 L 22.4 15.8 L 16.8 13.65 L 14 12.4 L 11.2 10.96 L 8.4 9.25 L 5.6 7.1 L 3.36 5 L 2.24 3.85 L 1.12 2.5 L 0.56 1.62 L 0.28 1.04 L 0.14 0.65 L 0 0 L 0.14 -1.31 L 0.28 -1.66 L 0.56 -2.19 L 1.12 -2.94 L 2.24 -4 L 3.36 -4.75 L 5.6 -5.68 L 8.4 -6.33 L 11.2 -6.87 L 14 -7.29 L 16.8 -7.6 L 22.4 -7.97 L 28 -8.23 L 33.6 -8.39 L 39.2 -8.47 L 44.8 -8.47 L 50.4 -8.41 L 56 -8.31 L 61.6 -8.16 L 67.2 -7.99 L 72.8 -7.79 L 78.4 -7.58 L 84 -7.37 L 89.6 -7.16 L 95.2 -6.95 L 100.8 -6.74 L 106.4 -6.54 L 112 -6.34 L 117.6 -6.13 L 123.2 -5.93 L 128.8 -5.72 L 134.4 -5.52 L 140 -5.31 L 145.6 -5.1 L 151.2 -4.9 L 156.8 -4.69 L 162.4 -4.49 L 168 -4.28 L 173.6 -4.08 L 179.2 -3.87 L 184.8 -3.66 L 190.4 -3.46 L 196 -3.25 L 201.6 -3.05 L 207.2 -2.84 L 212.8 -2.64 L 218.4 -2.43 L 224 -2.22 L 229.6 -2.02 L 235.2 -1.81 L 240.8 -1.61 L 246.4 -1.4 L 252 -1.2 L 257.6 -0.99 L 263.2 -0.78 L 268.8 -0.58 L 271.6 -0.48 L 274.4 -0.37 L 277.2 -0.27 L 280 -0.17 "></path>
<path fill="none" stroke="blue" stroke-width="0.28" d="M 0 0 L 280 0 "></path>
<line fill="none" stroke="black" stroke-width="0.28" x1="-8.4" x2="288.4" y1="0" y2="0"></line>
<line fill="none" stroke="black" stroke-width="0.28" x1="0" x2="0" y1="-16.87" y2="34.06"></line>
</g>
</g>
<g transform="translate(0,50.926736)"><g transform="scale(2.8,2.8)"><text fill="rgb(48,48,144)" font-size="1.8" style="font-family:Arial,Helvetica,sans-serif;" x="1" y="2">Name = CLARK Y AIRFOIL</text><text fill="rgb(48,48,144)" font-size="1.8" style="font-family:Arial,Helvetica,sans-serif;" x="1" y="4">Chord = 280mm  Radius = 0mm  Thickness = 100%  Origin = 0%  Pitch = 0&#176; </text></g></g></svg>